<svg version="1.1" xmlns="http://www.w3.org/2000/svg" xmlns:xlink="http://www.w3.org/1999/xlink" width="27.87499" height="27.87499" viewBox="0,0,27.87499,27.87499"><defs><linearGradient x1="240" y1="166.8125" x2="240" y2="193.1875" gradientUnits="userSpaceOnUse" id="color-1"><stop offset="0" stop-color="#ffffff"/><stop offset="1" stop-color="#bfbfbf"/></linearGradient><linearGradient x1="239.99964" y1="166.45732" x2="239.99964" y2="193.54225" gradientTransform="translate(-419.77163,-330.99629) scale(1.7722,1.7722)" gradientUnits="userSpaceOnUse" id="color-2"><stop offset="0" stop-color="#ff0000"/><stop offset="1" stop-color="#004cff"/></linearGradient><linearGradient x1="240" y1="169.125" x2="240" y2="190.875" gradientUnits="userSpaceOnUse" id="color-3"><stop offset="0" stop-color="#ff0000"/><stop offset="1" stop-color="#008aff"/></linearGradient></defs><g transform="translate(-226.0625,-166.0625)"><g stroke-miterlimit="10"><path d="M230.17237,193.1875c-1.85561,0 -3.35987,-1.50427 -3.35987,-3.35987v-19.65525c0,-1.85561 1.50427,-3.35987 3.35987,-3.35987h19.65525c1.85561,0 3.35987,1.50427 3.35987,3.35987v19.65525c0,1.85561 -1.50427,3.35987 -3.35987,3.35987z" fill="url(#color-1)" stroke="#000000" stroke-width="1.5"/><text transform="translate(236.86454,186.77128) scale(0.56427,0.56427)" font-size="40" xml:space="preserve" fill="url(#color-2)" stroke="none" stroke-width="1" font-family="Serif" font-weight="normal" text-anchor="start"><tspan x="0" dy="0">i</tspan></text><path d="M229.125,180c0,-6.0061 4.8689,-10.875 10.875,-10.875c6.0061,0 10.875,4.8689 10.875,10.875c0,6.0061 -4.8689,10.875 -10.875,10.875c-6.0061,0 -10.875,-4.8689 -10.875,-10.875z" fill="none" stroke="url(#color-3)" stroke-width="1"/></g></g></svg>